<?xml version="1.0" encoding="UTF-8"?>
<svg xmlns="http://www.w3.org/2000/svg" width="1200" height="1920" viewBox="0 0 1200 1920" fill="none">
  <defs>
    <linearGradient id="bg" x1="0%" y1="0%" x2="100%" y2="100%">
      <stop offset="0%" stop-color="rgb(94, 74, 115)" />
      <stop offset="52%" stop-color="rgb(42, 27, 54)" />
      <stop offset="100%" stop-color="rgb(12, 10, 19)" />
    </linearGradient>
    <radialGradient id="glow" cx="78%" cy="10%" r="60%">
      <stop offset="0%" stop-color="rgba(216, 166, 255, 0.38)" />
      <stop offset="100%" stop-color="rgba(216, 166, 255, 0)" />
    </radialGradient>
    <linearGradient id="veil" x1="0%" y1="0%" x2="0%" y2="100%">
      <stop offset="0%" stop-color="rgba(6,9,16,0.1)" />
      <stop offset="60%" stop-color="rgba(5,8,14,0.04)" />
      <stop offset="100%" stop-color="rgba(3,4,8,0.24)" />
    </linearGradient>
    <filter id="soft-shadow" x="-12%" y="-12%" width="128%" height="128%">
      <feDropShadow dx="0" dy="26" stdDeviation="34" flood-color="rgba(1,4,10,0.42)" />
    </filter>
    <filter id="grain" x="0%" y="0%" width="100%" height="100%">
      <feTurbulence type="fractalNoise" baseFrequency="0.82" numOctaves="2" seed="8" />
      <feColorMatrix type="saturate" values="0" />
      <feComponentTransfer>
        <feFuncA type="table" tableValues="0 0 0 0.04" />
      </feComponentTransfer>
    </filter>
  </defs>
  <rect width="1200" height="1920" fill="url(#bg)" />
  <rect width="1200" height="1920" fill="url(#glow)" />
  
    <g filter="url(#soft-shadow)">
      <circle cx="888" cy="344" r="210" fill="rgba(0, 0, 0, 0.18)" />
      <circle cx="888" cy="344" r="132" fill="rgba(0, 0, 0, 0.14)" />
      <path d="M408 338C564 204 840 202 1010 346" stroke="rgba(0, 0, 0, 0.34)" stroke-width="16" fill="none" stroke-linecap="round" />
      <path d="M452 412C610 304 816 308 948 424" stroke="rgba(0, 0, 0, 0.28)" stroke-width="12" fill="none" stroke-linecap="round" />
      <path d="M230 1168L402 938L554 1168Z" fill="rgba(248, 232, 179, 0.9)" />
      <rect x="610" y="996" width="140" height="210" rx="26" fill="rgba(232, 243, 255, 0.38)" />
      <rect x="770" y="924" width="166" height="282" rx="40" fill="rgba(255, 214, 163, 0.34)" />
      <circle cx="680" cy="904" r="36" fill="rgba(146, 197, 255, 0.54)" />
      <circle cx="848" cy="870" r="26" fill="rgba(255, 224, 122, 0.56)" />
      <rect x="300" y="1260" width="380" height="54" rx="27" fill="rgba(0, 0, 0, 0.18)" />
      <rect x="736" y="1276" width="174" height="22" rx="11" fill="rgba(0, 0, 0, 0.26)" />
    </g>
  
  <rect width="1200" height="1920" fill="url(#veil)" />
  <rect width="1200" height="1920" filter="url(#grain)" opacity="0.55" />
</svg>