<?xml version="1.0" encoding="UTF-8"?>
<svg xmlns="http://www.w3.org/2000/svg" width="1200" height="1920" viewBox="0 0 1200 1920" fill="none">
  <defs>
    <linearGradient id="bg" x1="0%" y1="0%" x2="100%" y2="100%">
      <stop offset="0%" stop-color="rgb(105, 86, 59)" />
      <stop offset="52%" stop-color="rgb(47, 31, 25)" />
      <stop offset="100%" stop-color="rgb(13, 10, 13)" />
    </linearGradient>
    <radialGradient id="glow" cx="78%" cy="10%" r="60%">
      <stop offset="0%" stop-color="rgba(243, 195, 122, 0.38)" />
      <stop offset="100%" stop-color="rgba(243, 195, 122, 0)" />
    </radialGradient>
    <linearGradient id="veil" x1="0%" y1="0%" x2="0%" y2="100%">
      <stop offset="0%" stop-color="rgba(6,9,16,0.1)" />
      <stop offset="60%" stop-color="rgba(5,8,14,0.04)" />
      <stop offset="100%" stop-color="rgba(3,4,8,0.24)" />
    </linearGradient>
    <filter id="soft-shadow" x="-12%" y="-12%" width="128%" height="128%">
      <feDropShadow dx="0" dy="26" stdDeviation="34" flood-color="rgba(1,4,10,0.42)" />
    </filter>
    <filter id="grain" x="0%" y="0%" width="100%" height="100%">
      <feTurbulence type="fractalNoise" baseFrequency="0.82" numOctaves="2" seed="8" />
      <feColorMatrix type="saturate" values="0" />
      <feComponentTransfer>
        <feFuncA type="table" tableValues="0 0 0 0.04" />
      </feComponentTransfer>
    </filter>
  </defs>
  <rect width="1200" height="1920" fill="url(#bg)" />
  <rect width="1200" height="1920" fill="url(#glow)" />
  
    <g filter="url(#soft-shadow)">
      <rect x="88" y="170" width="1024" height="1500" rx="72" fill="rgba(0, 0, 0, 0.22)" />
      <rect x="210" y="360" width="560" height="840" rx="34" fill="rgba(234, 223, 205, 0.94)" transform="rotate(-10 490 780)" />
      <rect x="274" y="438" width="430" height="670" rx="22" fill="rgba(251, 246, 238, 0.98)" transform="rotate(-10 490 780)" />
      <circle cx="618" cy="948" r="26" fill="rgba(211, 170, 97, 0.18)" />
      <rect x="290" y="1032" width="152" height="14" rx="7" fill="rgba(211, 170, 97, 0.14)" transform="rotate(-10 366 1039)" />
      <rect x="802" y="494" width="126" height="690" rx="26" fill="rgba(43, 37, 31, 0.78)" transform="rotate(11 865 839)" />
      <rect x="858" y="542" width="12" height="600" rx="6" fill="rgba(211, 170, 97, 0.92)" transform="rotate(11 864 842)" />
      <rect x="684" y="1116" width="232" height="132" rx="30" fill="rgba(0, 0, 0, 0.34)" />
      <rect x="710" y="1140" width="180" height="18" rx="9" fill="rgba(242, 236, 223, 0.52)" />
      <rect x="710" y="1172" width="140" height="18" rx="9" fill="rgba(242, 236, 223, 0.42)" />
      <circle cx="900" cy="386" r="138" fill="rgba(0, 0, 0, 0.16)" />
    </g>
    <path d="M170 1520C360 1380 572 1328 798 1362C936 1384 1040 1432 1122 1516" stroke="rgba(0, 0, 0, 0.12)" stroke-width="10" fill="none" />
  
  <rect width="1200" height="1920" fill="url(#veil)" />
  <rect width="1200" height="1920" filter="url(#grain)" opacity="0.55" />
</svg>