<?xml version="1.0" encoding="UTF-8"?>
<svg xmlns="http://www.w3.org/2000/svg" width="1200" height="1920" viewBox="0 0 1200 1920" fill="none">
  <defs>
    <linearGradient id="bg" x1="0%" y1="0%" x2="100%" y2="100%">
      <stop offset="0%" stop-color="rgb(66, 93, 115)" />
      <stop offset="52%" stop-color="rgb(19, 39, 58)" />
      <stop offset="100%" stop-color="rgb(7, 13, 21)" />
    </linearGradient>
    <radialGradient id="glow" cx="78%" cy="10%" r="60%">
      <stop offset="0%" stop-color="rgba(151, 211, 255, 0.38)" />
      <stop offset="100%" stop-color="rgba(151, 211, 255, 0)" />
    </radialGradient>
    <linearGradient id="veil" x1="0%" y1="0%" x2="0%" y2="100%">
      <stop offset="0%" stop-color="rgba(6,9,16,0.1)" />
      <stop offset="60%" stop-color="rgba(5,8,14,0.04)" />
      <stop offset="100%" stop-color="rgba(3,4,8,0.24)" />
    </linearGradient>
    <filter id="soft-shadow" x="-12%" y="-12%" width="128%" height="128%">
      <feDropShadow dx="0" dy="26" stdDeviation="34" flood-color="rgba(1,4,10,0.42)" />
    </filter>
    <filter id="grain" x="0%" y="0%" width="100%" height="100%">
      <feTurbulence type="fractalNoise" baseFrequency="0.82" numOctaves="2" seed="8" />
      <feColorMatrix type="saturate" values="0" />
      <feComponentTransfer>
        <feFuncA type="table" tableValues="0 0 0 0.04" />
      </feComponentTransfer>
    </filter>
  </defs>
  <rect width="1200" height="1920" fill="url(#bg)" />
  <rect width="1200" height="1920" fill="url(#glow)" />
  
    <g opacity="0.2">
      <rect x="162" y="120" width="3" height="1620" fill="rgba(151, 211, 255, 0.14)" /><rect x="296" y="120" width="3" height="1620" fill="rgba(151, 211, 255, 0.14)" /><rect x="416" y="120" width="3" height="1620" fill="rgba(151, 211, 255, 0.14)" /><rect x="536" y="120" width="3" height="1620" fill="rgba(151, 211, 255, 0.14)" /><rect x="664" y="120" width="3" height="1620" fill="rgba(151, 211, 255, 0.14)" /><rect x="782" y="120" width="3" height="1620" fill="rgba(151, 211, 255, 0.14)" /><rect x="907" y="120" width="3" height="1620" fill="rgba(151, 211, 255, 0.14)" /><rect x="1027" y="120" width="3" height="1620" fill="rgba(151, 211, 255, 0.14)" />
    </g>
    <g filter="url(#soft-shadow)">
      <rect x="833" y="160" width="300" height="920" rx="32" fill="rgba(0, 0, 0, 0.82)" />
      <rect x="973" y="240" width="10" height="900" fill="rgba(151, 211, 255, 0.82)" />
      <rect x="583" y="540" width="260" height="860" rx="28" fill="rgba(0, 0, 0, 0.74)" />
      <rect x="713" y="620" width="9" height="780" fill="rgba(151, 211, 255, 0.68)" />
      <polygon points="291,1220 651,860 911,1110 531,1510" fill="rgba(0, 0, 0, 0.16)" />
      <polygon points="700,260 1120,140 1180,640 780,740" fill="rgba(0, 0, 0, 0.14)" />
    </g>
    <circle cx="993" cy="340" r="220" fill="rgba(0, 0, 0, 0.12)" />
    <circle cx="1068" cy="310" r="164" fill="rgba(0, 0, 0, 0.18)" />
  
  <rect width="1200" height="1920" fill="url(#veil)" />
  <rect width="1200" height="1920" filter="url(#grain)" opacity="0.55" />
</svg>