<?xml version="1.0" encoding="UTF-8"?>
<svg xmlns="http://www.w3.org/2000/svg" width="1200" height="1920" viewBox="0 0 1200 1920" fill="none">
  <defs>
    <linearGradient id="bg" x1="0%" y1="0%" x2="100%" y2="100%">
      <stop offset="0%" stop-color="rgb(55, 99, 85)" />
      <stop offset="52%" stop-color="rgb(18, 31, 31)" />
      <stop offset="100%" stop-color="rgb(7, 11, 15)" />
    </linearGradient>
    <radialGradient id="glow" cx="78%" cy="10%" r="60%">
      <stop offset="0%" stop-color="rgba(125, 226, 184, 0.38)" />
      <stop offset="100%" stop-color="rgba(125, 226, 184, 0)" />
    </radialGradient>
    <linearGradient id="veil" x1="0%" y1="0%" x2="0%" y2="100%">
      <stop offset="0%" stop-color="rgba(6,9,16,0.1)" />
      <stop offset="60%" stop-color="rgba(5,8,14,0.04)" />
      <stop offset="100%" stop-color="rgba(3,4,8,0.24)" />
    </linearGradient>
    <filter id="soft-shadow" x="-12%" y="-12%" width="128%" height="128%">
      <feDropShadow dx="0" dy="26" stdDeviation="34" flood-color="rgba(1,4,10,0.42)" />
    </filter>
    <filter id="grain" x="0%" y="0%" width="100%" height="100%">
      <feTurbulence type="fractalNoise" baseFrequency="0.82" numOctaves="2" seed="8" />
      <feColorMatrix type="saturate" values="0" />
      <feComponentTransfer>
        <feFuncA type="table" tableValues="0 0 0 0.04" />
      </feComponentTransfer>
    </filter>
  </defs>
  <rect width="1200" height="1920" fill="url(#bg)" />
  <rect width="1200" height="1920" fill="url(#glow)" />
  
    <g filter="url(#soft-shadow)">
      <rect x="146" y="286" width="876" height="1220" rx="56" fill="rgba(0, 0, 0, 0.16)" />
      <rect x="208" y="386" width="664" height="760" rx="42" fill="rgba(223, 234, 231, 0.12)" />
      <rect x="274" y="472" width="208" height="152" rx="26" fill="rgba(244, 250, 249, 0.26)" />
      <rect x="518" y="472" width="286" height="152" rx="26" fill="rgba(141, 224, 203, 0.2)" />
      <rect x="274" y="664" width="530" height="188" rx="30" fill="rgba(241, 247, 246, 0.14)" />
      <rect x="274" y="896" width="262" height="176" rx="28" fill="rgba(244, 250, 249, 0.18)" />
      <rect x="566" y="896" width="238" height="176" rx="28" fill="rgba(214, 236, 229, 0.18)" />
      <rect x="866" y="590" width="126" height="640" rx="34" fill="rgba(0, 0, 0, 0.58)" />
      <circle cx="240" cy="1272" r="88" fill="rgba(0, 0, 0, 0.18)" />
      <rect x="210" y="1248" width="520" height="18" rx="9" fill="rgba(0, 0, 0, 0.42)" />
      <rect x="370" y="1032" width="8" height="238" rx="4" fill="rgba(0, 0, 0, 0.52)" />
      <rect x="654" y="760" width="8" height="514" rx="4" fill="rgba(0, 0, 0, 0.48)" />
      <ellipse cx="936" cy="1280" rx="72" ry="28" fill="rgba(18, 25, 37, 0.34)" />
      <path d="M902 1278C926 1246 952 1246 970 1278" stroke="rgba(242, 247, 245, 0.24)" stroke-width="8" fill="none" stroke-linecap="round" />
    </g>
  
  <rect width="1200" height="1920" fill="url(#veil)" />
  <rect width="1200" height="1920" filter="url(#grain)" opacity="0.55" />
</svg>