<?xml version="1.0" encoding="UTF-8"?>
<svg xmlns="http://www.w3.org/2000/svg" width="1200" height="1920" viewBox="0 0 1200 1920" fill="none">
  <defs>
    <linearGradient id="bg" x1="0%" y1="0%" x2="100%" y2="100%">
      <stop offset="0%" stop-color="rgb(110, 70, 83)" />
      <stop offset="52%" stop-color="rgb(53, 26, 35)" />
      <stop offset="100%" stop-color="rgb(14, 9, 15)" />
    </linearGradient>
    <radialGradient id="glow" cx="78%" cy="10%" r="60%">
      <stop offset="0%" stop-color="rgba(255, 157, 180, 0.38)" />
      <stop offset="100%" stop-color="rgba(255, 157, 180, 0)" />
    </radialGradient>
    <linearGradient id="veil" x1="0%" y1="0%" x2="0%" y2="100%">
      <stop offset="0%" stop-color="rgba(6,9,16,0.1)" />
      <stop offset="60%" stop-color="rgba(5,8,14,0.04)" />
      <stop offset="100%" stop-color="rgba(3,4,8,0.24)" />
    </linearGradient>
    <filter id="soft-shadow" x="-12%" y="-12%" width="128%" height="128%">
      <feDropShadow dx="0" dy="26" stdDeviation="34" flood-color="rgba(1,4,10,0.42)" />
    </filter>
    <filter id="grain" x="0%" y="0%" width="100%" height="100%">
      <feTurbulence type="fractalNoise" baseFrequency="0.82" numOctaves="2" seed="8" />
      <feColorMatrix type="saturate" values="0" />
      <feComponentTransfer>
        <feFuncA type="table" tableValues="0 0 0 0.04" />
      </feComponentTransfer>
    </filter>
  </defs>
  <rect width="1200" height="1920" fill="url(#bg)" />
  <rect width="1200" height="1920" fill="url(#glow)" />
  
    <g filter="url(#soft-shadow)">
      <rect x="112" y="202" width="976" height="1416" rx="74" fill="rgba(0, 0, 0, 0.14)" />
      <rect x="196" y="292" width="476" height="1084" rx="48" fill="rgba(233, 226, 212, 0.84)" />
      <rect x="256" y="372" width="356" height="824" rx="28" fill="rgba(250, 245, 237, 0.96)" />
      <rect x="764" y="1030" width="154" height="154" rx="77" fill="rgba(235, 229, 220, 0.28)" />
      <circle cx="840" cy="1108" r="48" fill="rgba(215, 200, 181, 0.34)" />
      <ellipse cx="884" cy="1362" rx="120" ry="48" fill="rgba(0, 0, 0, 0.12)" />
      <rect x="748" y="560" width="244" height="420" rx="28" fill="rgba(0, 0, 0, 0.34)" />
      <path d="M716 518C816 382 924 322 1044 330" stroke="rgba(242, 213, 159, 0.34)" stroke-width="18" fill="none" stroke-linecap="round" />
      <path d="M716 590C816 474 930 430 1040 440" stroke="rgba(255, 248, 239, 0.22)" stroke-width="14" fill="none" stroke-linecap="round" />
    </g>
  
  <rect width="1200" height="1920" fill="url(#veil)" />
  <rect width="1200" height="1920" filter="url(#grain)" opacity="0.55" />
</svg>